General
Complete name                    : D:\TOORENT FOR UPLOAD\Lions for Lambs 2007 Hindi BRRIP by RoYStaR\Lions for Lambs 2007 Hindi BRRIP by RoYStaR.m4v
Format                           : MPEG-4
Format profile                   : Base Media / Version 2
Codec ID                         : mp42
File size                        : 661 MiB
Duration                         : 1h 25mn
Overall bit rate                 : 1 085 Kbps
Encoded date                     : UTC 2011-08-23 16:12:25
Tagged date                      : UTC 2011-08-23 17:59:18
Writing application              : HandBrake 0.9.5 2011010300

Video
ID                               : 1
Format                           : AVC
Format/Info                      : Advanced Video Codec
Format profile                   : High@L3.0
Format settings, CABAC           : Yes
Format settings, ReFrames        : 4 frames
Codec ID                         : avc1
Codec ID/Info                    : Advanced Video Coding
Duration                         : 1h 25mn
Bit rate mode                    : Variable
Bit rate                         : 967 Kbps
Width                            : 848 pixels
Height                           : 480 pixels
Display aspect ratio             : 16:9
Frame rate mode                  : Variable
Frame rate                       : 23.976 fps
Minimum frame rate               : 23.810 fps
Maximum frame rate               : 1 000.000 fps
Color space                      : YUV
Chroma subsampling               : 4:2:0
Bit depth                        : 8 bits
Scan type                        : Progressive
Bits/(Pixel*Frame)               : 0.099
Stream size                      : 589 MiB (89%)
Writing library                  : x264 core 112

Encoded date                     : UTC 2011-08-23 16:12:25
Tagged date                      : UTC 2011-08-23 17:59:18
Color primaries                  : BT.709-5, BT.1361, IEC 61966-2-4, SMPTE RP177
Transfer characteristics         : BT.709-5, BT.1361
Matrix coefficients              : BT.709-5, BT.1361, IEC 61966-2-4 709, SMPTE RP177

Audio
ID                               : 2
Format                           : AAC
Format/Info                      : Advanced Audio Codec
Format profile                   : LC
Codec ID                         : 40
Duration                         : 1h 25mn
Bit rate mode                    : Variable
Bit rate                         : 112 Kbps
Maximum bit rate                 : 207 Kbps
Channel(s)                       : 2 channels
Channel positions                : Front: L R
Sampling rate                    : 48.0 KHz
Compression mode                 : Lossy
Stream size                      : 68.2 MiB (10%)
Language                         : Hindi
Encoded date                     : UTC 2011-08-23 16:12:25
Tagged date                      : UTC 2011-08-23 17:59:17

Text
ID                               : 3
Format                           : Timed text
Muxing mode                      : sbtl
Codec ID                         : tx3g
Duration                         : 1h 23mn
Bit rate mode                    : Variable
Bit rate                         : 106 bps
Stream size                      : 65.0 KiB (0%)
Language                         : English
Encoded date                     : UTC 2011-08-23 16:12:25
Tagged date                      : UTC 2011-08-23 17:58:09




This is quality upload. . . . . . . 

Because i am upload only quality torrent....




ENJOY................ *RoY StaR*
